<?xml version="1.0" encoding="UTF-8" standalone="no"?>
<!-- Created with Inkscape (http://www.inkscape.org/) -->

<svg
   width="131.00841mm"
   height="70.93029mm"
   viewBox="0 0 131.00841 70.93029"
   version="1.1"
   id="svg3640"
   inkscape:version="1.2.2 (b0a8486541, 2022-12-01)"
   sodipodi:docname="Logo of the Frame Relay Forum.svg"
   xmlns:inkscape="http://www.inkscape.org/namespaces/inkscape"
   xmlns:sodipodi="http://sodipodi.sourceforge.net/DTD/sodipodi-0.dtd"
   xmlns="http://www.w3.org/2000/svg"
   xmlns:svg="http://www.w3.org/2000/svg">
  <sodipodi:namedview
     id="namedview3642"
     pagecolor="#ffffff"
     bordercolor="#000000"
     borderopacity="0.25"
     inkscape:showpageshadow="2"
     inkscape:pageopacity="0.0"
     inkscape:pagecheckerboard="0"
     inkscape:deskcolor="#d1d1d1"
     inkscape:document-units="mm"
     showgrid="false"
     inkscape:zoom="0.7198092"
     inkscape:cx="248.67701"
     inkscape:cy="255.62329"
     inkscape:window-width="1866"
     inkscape:window-height="1011"
     inkscape:window-x="0"
     inkscape:window-y="0"
     inkscape:window-maximized="1"
     inkscape:current-layer="layer1" />
  <defs
     id="defs3637" />
  <g
     inkscape:label="Layer 1"
     inkscape:groupmode="layer"
     id="layer1"
     transform="translate(-39.495793,-80.84909)">
    <g
       id="g3010"
       transform="matrix(1.0864624,0,0,-1.0825581,-30.855302,-447.93724)">
      <path
         d="m 142.341,-500.637 h 7.504 v -7.904 h -7.504 z"
         style="fill:#dd4144;fill-opacity:1;fill-rule:nonzero;stroke:#df0024;stroke-width:0.338;stroke-linecap:butt;stroke-linejoin:miter;stroke-miterlimit:3.864;stroke-dasharray:none;stroke-opacity:1"
         id="path3012" />
    </g>
    <g
       id="g3018"
       transform="matrix(1.0864624,0,0,-1.0825581,-30.855302,-447.93724)">
      <path
         d="m 153.047,-504.038 h 6.504 v 6.704 h -6.504 z"
         style="fill:#dd4144;fill-opacity:1;fill-rule:nonzero;stroke:#df0024;stroke-width:0.338;stroke-linecap:butt;stroke-linejoin:miter;stroke-miterlimit:3.864;stroke-dasharray:none;stroke-opacity:1"
         id="path3020" />
    </g>
    <g
       id="g3026"
       transform="matrix(1.0864624,0,0,-1.0825581,-30.855302,-447.93724)">
      <path
         d="m 162.052,-500.436 h 5.403 v 5.803 h -5.403 z"
         style="fill:#dd4144;fill-opacity:1;fill-rule:nonzero;stroke:#df0024;stroke-width:0.338;stroke-linecap:butt;stroke-linejoin:miter;stroke-miterlimit:3.864;stroke-dasharray:none;stroke-opacity:1"
         id="path3028" />
    </g>
    <g
       id="g3034"
       transform="matrix(1.0864624,0,0,-1.0825581,-30.855302,-447.93724)">
      <path
         d="m 169.356,-497.335 h 4.303 v 4.903 h -4.303 z"
         style="fill:#dd4144;fill-opacity:1;fill-rule:nonzero;stroke:#df0024;stroke-width:0.338;stroke-linecap:butt;stroke-linejoin:miter;stroke-miterlimit:3.864;stroke-dasharray:none;stroke-opacity:1"
         id="path3036" />
    </g>
    <g
       id="g3042"
       transform="matrix(1.0864624,0,0,-1.0825581,-30.855302,-447.93724)">
      <path
         d="m 175.46,-494.933 h 3.602 v 3.902 h -3.602 z"
         style="fill:#dd4144;fill-opacity:1;fill-rule:nonzero;stroke:#df0024;stroke-width:0.338;stroke-linecap:butt;stroke-linejoin:miter;stroke-miterlimit:3.864;stroke-dasharray:none;stroke-opacity:1"
         id="path3044" />
    </g>
    <g
       id="g3050"
       transform="matrix(1.0864624,0,0,-1.0825581,-30.855302,-447.93724)">
      <path
         d="m 180.263,-492.131 h 2.601 v 2.901 h -2.601 z"
         style="fill:#dd4144;fill-opacity:1;fill-rule:nonzero;stroke:#df0024;stroke-width:0.338;stroke-linecap:butt;stroke-linejoin:miter;stroke-miterlimit:3.864;stroke-dasharray:none;stroke-opacity:1"
         id="path3052" />
    </g>
    <g
       id="g3058"
       transform="matrix(1.0864624,0,0,-1.0825581,-30.855302,-447.93724)">
      <path
         d="m 183.865,-490.13 h 1.301 v 1.501 h -1.301 z"
         style="fill:#dd4144;fill-opacity:1;fill-rule:nonzero;stroke:#df0024;stroke-width:0.338;stroke-linecap:butt;stroke-linejoin:miter;stroke-miterlimit:3.864;stroke-dasharray:none;stroke-opacity:1"
         id="path3060" />
    </g>
    <g
       id="g3066"
       transform="matrix(1.0864624,0,0,-1.0825581,-30.855302,-447.93724)">
      <path
         d="m 142.341,-511.843 h 7.504 v -7.904 h -7.504 z"
         style="fill:#dd4144;fill-opacity:1;fill-rule:nonzero;stroke:#df0024;stroke-width:0.338;stroke-linecap:butt;stroke-linejoin:miter;stroke-miterlimit:3.864;stroke-dasharray:none;stroke-opacity:1"
         id="path3068" />
    </g>
    <g
       id="g3074"
       transform="matrix(1.0864624,0,0,-1.0825581,-30.855302,-447.93724)">
      <path
         d="m 153.047,-515.245 h 6.504 v 6.704 h -6.504 z"
         style="fill:#dd4144;fill-opacity:1;fill-rule:nonzero;stroke:#df0024;stroke-width:0.338;stroke-linecap:butt;stroke-linejoin:miter;stroke-miterlimit:3.864;stroke-dasharray:none;stroke-opacity:1"
         id="path3076" />
    </g>
    <g
       id="g3082"
       transform="matrix(1.0864624,0,0,-1.0825581,-30.855302,-447.93724)">
      <path
         d="m 162.052,-511.643 h 5.403 v 5.804 h -5.403 z"
         style="fill:#dd4144;fill-opacity:1;fill-rule:nonzero;stroke:#df0024;stroke-width:0.338;stroke-linecap:butt;stroke-linejoin:miter;stroke-miterlimit:3.864;stroke-dasharray:none;stroke-opacity:1"
         id="path3084" />
    </g>
    <g
       id="g3090"
       transform="matrix(1.0864624,0,0,-1.0825581,-30.855302,-447.93724)">
      <path
         d="m 169.356,-508.541 h 4.303 v 4.903 h -4.303 z"
         style="fill:#dd4144;fill-opacity:1;fill-rule:nonzero;stroke:#df0024;stroke-width:0.338;stroke-linecap:butt;stroke-linejoin:miter;stroke-miterlimit:3.864;stroke-dasharray:none;stroke-opacity:1"
         id="path3092" />
    </g>
    <g
       id="g3098"
       transform="matrix(1.0864624,0,0,-1.0825581,-30.855302,-447.93724)">
      <path
         d="m 175.46,-506.14 h 3.602 v 3.902 h -3.602 z"
         style="fill:#dd4144;fill-opacity:1;fill-rule:nonzero;stroke:#df0024;stroke-width:0.338;stroke-linecap:butt;stroke-linejoin:miter;stroke-miterlimit:3.864;stroke-dasharray:none;stroke-opacity:1"
         id="path3100" />
    </g>
    <g
       id="g3106"
       transform="matrix(1.0864624,0,0,-1.0825581,-30.855302,-447.93724)">
      <path
         d="m 180.263,-503.338 h 2.601 v 2.902 h -2.601 z"
         style="fill:#dd4144;fill-opacity:1;fill-rule:nonzero;stroke:#df0024;stroke-width:0.338;stroke-linecap:butt;stroke-linejoin:miter;stroke-miterlimit:3.864;stroke-dasharray:none;stroke-opacity:1"
         id="path3108" />
    </g>
    <g
       id="g3114"
       transform="matrix(1.0864624,0,0,-1.0825581,-30.855302,-447.93724)">
      <path
         d="m 183.865,-501.337 h 1.301 v 1.501 h -1.301 z"
         style="fill:#dd4144;fill-opacity:1;fill-rule:nonzero;stroke:#df0024;stroke-width:0.338;stroke-linecap:butt;stroke-linejoin:miter;stroke-miterlimit:3.864;stroke-dasharray:none;stroke-opacity:1"
         id="path3116" />
    </g>
    <g
       id="g3122"
       transform="matrix(1.0864624,0,0,-1.0825581,-30.855302,-447.93724)">
      <path
         d="m 142.341,-523.049 h 7.504 v -7.905 h -7.504 z"
         style="fill:#dd4144;fill-opacity:1;fill-rule:nonzero;stroke:#df0024;stroke-width:0.338;stroke-linecap:butt;stroke-linejoin:miter;stroke-miterlimit:3.864;stroke-dasharray:none;stroke-opacity:1"
         id="path3124" />
    </g>
    <g
       id="g3130"
       transform="matrix(1.0864624,0,0,-1.0825581,-30.855302,-447.93724)">
      <path
         d="m 153.047,-526.451 h 6.504 v 6.704 h -6.504 z"
         style="fill:#dd4144;fill-opacity:1;fill-rule:nonzero;stroke:#df0024;stroke-width:0.338;stroke-linecap:butt;stroke-linejoin:miter;stroke-miterlimit:3.864;stroke-dasharray:none;stroke-opacity:1"
         id="path3132" />
    </g>
    <g
       id="g3138"
       transform="matrix(1.0864624,0,0,-1.0825581,-30.855302,-447.93724)">
      <path
         d="m 162.052,-522.849 h 5.403 v 5.803 h -5.403 z"
         style="fill:#dd4144;fill-opacity:1;fill-rule:nonzero;stroke:#df0024;stroke-width:0.338;stroke-linecap:butt;stroke-linejoin:miter;stroke-miterlimit:3.864;stroke-dasharray:none;stroke-opacity:1"
         id="path3140" />
    </g>
    <g
       id="g3146"
       transform="matrix(1.0864624,0,0,-1.0825581,-30.855302,-447.93724)">
      <path
         d="m 169.356,-519.747 h 4.303 v 4.902 h -4.303 z"
         style="fill:#dd4144;fill-opacity:1;fill-rule:nonzero;stroke:#df0024;stroke-width:0.338;stroke-linecap:butt;stroke-linejoin:miter;stroke-miterlimit:3.864;stroke-dasharray:none;stroke-opacity:1"
         id="path3148" />
    </g>
    <g
       id="g3154"
       transform="matrix(1.0864624,0,0,-1.0825581,-30.855302,-447.93724)">
      <path
         d="m 175.46,-517.346 h 3.602 v 3.902 h -3.602 z"
         style="fill:#dd4144;fill-opacity:1;fill-rule:nonzero;stroke:#df0024;stroke-width:0.338;stroke-linecap:butt;stroke-linejoin:miter;stroke-miterlimit:3.864;stroke-dasharray:none;stroke-opacity:1"
         id="path3156" />
    </g>
    <g
       id="g3162"
       transform="matrix(1.0864624,0,0,-1.0825581,-30.855302,-447.93724)">
      <path
         d="m 180.263,-514.544 h 2.601 v 2.901 h -2.601 z"
         style="fill:#dd4144;fill-opacity:1;fill-rule:nonzero;stroke:#df0024;stroke-width:0.338;stroke-linecap:butt;stroke-linejoin:miter;stroke-miterlimit:3.864;stroke-dasharray:none;stroke-opacity:1"
         id="path3164" />
    </g>
    <g
       id="g3170"
       transform="matrix(1.0864624,0,0,-1.0825581,-30.855302,-447.93724)">
      <path
         d="m 183.865,-512.543 h 1.301 v 1.5 h -1.301 z"
         style="fill:#dd4144;fill-opacity:1;fill-rule:nonzero;stroke:#df0024;stroke-width:0.338;stroke-linecap:butt;stroke-linejoin:miter;stroke-miterlimit:3.864;stroke-dasharray:none;stroke-opacity:1"
         id="path3172" />
    </g>
    <g
       id="g3178"
       transform="matrix(1.0864624,0,0,-1.0825581,-30.855302,-447.93724)">
      <path
         d="m 142.341,-534.256 h 7.504 v -7.904 h -7.504 z"
         style="fill:#dd4144;fill-opacity:1;fill-rule:nonzero;stroke:#df0024;stroke-width:0.338;stroke-linecap:butt;stroke-linejoin:miter;stroke-miterlimit:3.864;stroke-dasharray:none;stroke-opacity:1"
         id="path3180" />
    </g>
    <g
       id="g3186"
       transform="matrix(1.0864624,0,0,-1.0825581,-30.855302,-447.93724)">
      <path
         d="m 153.047,-537.658 h 6.504 v 6.704 h -6.504 z"
         style="fill:#dd4144;fill-opacity:1;fill-rule:nonzero;stroke:#df0024;stroke-width:0.338;stroke-linecap:butt;stroke-linejoin:miter;stroke-miterlimit:3.864;stroke-dasharray:none;stroke-opacity:1"
         id="path3188" />
    </g>
    <g
       id="g3194"
       transform="matrix(1.0864624,0,0,-1.0825581,-30.855302,-447.93724)">
      <path
         d="m 162.052,-534.056 h 5.403 v 5.803 h -5.403 z"
         style="fill:#dd4144;fill-opacity:1;fill-rule:nonzero;stroke:#df0024;stroke-width:0.338;stroke-linecap:butt;stroke-linejoin:miter;stroke-miterlimit:3.864;stroke-dasharray:none;stroke-opacity:1"
         id="path3196" />
    </g>
    <g
       id="g3202"
       transform="matrix(1.0864624,0,0,-1.0825581,-30.855302,-447.93724)">
      <path
         d="m 169.356,-530.954 h 4.303 v 4.903 h -4.303 z"
         style="fill:#dd4144;fill-opacity:1;fill-rule:nonzero;stroke:#df0024;stroke-width:0.338;stroke-linecap:butt;stroke-linejoin:miter;stroke-miterlimit:3.864;stroke-dasharray:none;stroke-opacity:1"
         id="path3204" />
    </g>
    <g
       id="g3210"
       transform="matrix(1.0864624,0,0,-1.0825581,-30.855302,-447.93724)">
      <path
         d="m 175.46,-528.553 h 3.602 v 3.902 h -3.602 z"
         style="fill:#dd4144;fill-opacity:1;fill-rule:nonzero;stroke:#df0024;stroke-width:0.338;stroke-linecap:butt;stroke-linejoin:miter;stroke-miterlimit:3.864;stroke-dasharray:none;stroke-opacity:1"
         id="path3212" />
    </g>
    <g
       id="g3218"
       transform="matrix(1.0864624,0,0,-1.0825581,-30.855302,-447.93724)">
      <path
         d="m 180.263,-525.751 h 2.601 v 2.902 h -2.601 z"
         style="fill:#dd4144;fill-opacity:1;fill-rule:nonzero;stroke:#df0024;stroke-width:0.338;stroke-linecap:butt;stroke-linejoin:miter;stroke-miterlimit:3.864;stroke-dasharray:none;stroke-opacity:1"
         id="path3220" />
    </g>
    <g
       id="g3226"
       transform="matrix(1.0864624,0,0,-1.0825581,-30.855302,-447.93724)">
      <path
         d="m 183.865,-523.75 h 1.301 v 1.501 h -1.301 z"
         style="fill:#dd4144;fill-opacity:1;fill-rule:nonzero;stroke:#df0024;stroke-width:0.338;stroke-linecap:butt;stroke-linejoin:miter;stroke-miterlimit:3.864;stroke-dasharray:none;stroke-opacity:1"
         id="path3228" />
    </g>
    <g
       id="g3234"
       transform="matrix(1.0864624,0,0,-1.0825581,-30.855302,-447.93724)">
      <path
         d="m 142.341,-545.462 h 7.504 v -7.905 h -7.504 z"
         style="fill:#dd4144;fill-opacity:1;fill-rule:nonzero;stroke:#df0024;stroke-width:0.338;stroke-linecap:butt;stroke-linejoin:miter;stroke-miterlimit:3.864;stroke-dasharray:none;stroke-opacity:1"
         id="path3236" />
    </g>
    <g
       id="g3242"
       transform="matrix(1.0864624,0,0,-1.0825581,-30.855302,-447.93724)">
      <path
         d="m 153.047,-548.864 h 6.504 v 6.704 h -6.504 z"
         style="fill:#dd4144;fill-opacity:1;fill-rule:nonzero;stroke:#df0024;stroke-width:0.338;stroke-linecap:butt;stroke-linejoin:miter;stroke-miterlimit:3.864;stroke-dasharray:none;stroke-opacity:1"
         id="path3244" />
    </g>
    <g
       id="g3250"
       transform="matrix(1.0864624,0,0,-1.0825581,-30.855302,-447.93724)">
      <path
         d="m 162.052,-545.262 h 5.403 v 5.804 h -5.403 z"
         style="fill:#dd4144;fill-opacity:1;fill-rule:nonzero;stroke:#df0024;stroke-width:0.338;stroke-linecap:butt;stroke-linejoin:miter;stroke-miterlimit:3.864;stroke-dasharray:none;stroke-opacity:1"
         id="path3252" />
    </g>
    <g
       id="g3258"
       transform="matrix(1.0864624,0,0,-1.0825581,-30.855302,-447.93724)">
      <path
         d="m 169.356,-542.16 h 4.303 v 4.903 h -4.303 z"
         style="fill:#dd4144;fill-opacity:1;fill-rule:nonzero;stroke:#df0024;stroke-width:0.338;stroke-linecap:butt;stroke-linejoin:miter;stroke-miterlimit:3.864;stroke-dasharray:none;stroke-opacity:1"
         id="path3260" />
    </g>
    <g
       id="g3266"
       transform="matrix(1.0864624,0,0,-1.0825581,-30.855302,-447.93724)">
      <path
         d="m 175.46,-539.759 h 3.602 v 3.902 h -3.602 z"
         style="fill:#dd4144;fill-opacity:1;fill-rule:nonzero;stroke:#df0024;stroke-width:0.338;stroke-linecap:butt;stroke-linejoin:miter;stroke-miterlimit:3.864;stroke-dasharray:none;stroke-opacity:1"
         id="path3268" />
    </g>
    <g
       id="g3274"
       transform="matrix(1.0864624,0,0,-1.0825581,-30.855302,-447.93724)">
      <path
         d="m 180.263,-536.957 h 2.601 v 2.902 h -2.601 z"
         style="fill:#dd4144;fill-opacity:1;fill-rule:nonzero;stroke:#df0024;stroke-width:0.338;stroke-linecap:butt;stroke-linejoin:miter;stroke-miterlimit:3.864;stroke-dasharray:none;stroke-opacity:1"
         id="path3276" />
    </g>
    <g
       id="g3282"
       transform="matrix(1.0864624,0,0,-1.0825581,-30.855302,-447.93724)">
      <path
         d="m 183.865,-534.956 h 1.301 v 1.501 h -1.301 z"
         style="fill:#dd4144;fill-opacity:1;fill-rule:nonzero;stroke:#df0024;stroke-width:0.338;stroke-linecap:butt;stroke-linejoin:miter;stroke-miterlimit:3.864;stroke-dasharray:none;stroke-opacity:1"
         id="path3284" />
    </g>
    <path
       d="m 56.530197,89.210923 -0.677821,3.180867 h -9.246534 l -0.901227,4.22634 h 8.147924 L 53.173636,99.799 h -8.147925 l -1.698343,7.96573 h -3.831575 l 3.957378,-18.553807 h 13.077026"
       style="fill:#005a95;fill-opacity:1;fill-rule:nonzero;stroke:none;stroke-width:1.08451"
       id="path3290" />
    <path
       d="m 57.760032,93.97084 h 3.575629 l -0.570452,2.67223 h 0.05205 c 0.403437,-0.81446 0.684327,-1.29815 2.121302,-2.16359 0.710356,-0.45767 1.625681,-0.91641 2.711277,-0.73856 l -0.775425,3.63962 c -1.495541,-0.17784 -3.750237,-0.38175 -4.824988,2.62235 l -1.656045,7.76184 h -3.575632 l 2.942279,-13.79389"
       style="fill:#005a95;fill-opacity:1;fill-rule:nonzero;stroke:none;stroke-width:1.08451"
       id="path3292" />
    <path
       d="m 72.746879,107.76473 c -0.186542,-0.33078 -0.219068,-0.8893 -0.09109,-1.37408 -1.500961,1.17127 -2.767671,1.95971 -4.861858,1.95971 -2.809968,0 -3.852181,-1.57796 -3.179786,-4.2502 0.489115,-1.93367 1.656049,-3.81747 4.937775,-4.35213 1.339372,-0.051 2.83491,-0.35681 3.737222,-0.63661 0.687582,-0.22884 1.135488,-0.89038 1.224418,-1.55193 0.18543,-0.86544 -0.447908,-1.24719 -2.08335,-1.24719 -2.043217,0 -2.564866,1.24719 -2.827317,2.23951 h -3.371742 c 0.991243,-4.40311 4.85752,-4.81089 6.747822,-4.81089 1.379496,0 2.530167,0.22992 3.160267,0.50972 1.2602,0.55961 2.11913,1.67991 1.65279,3.86845 l -1.60724,7.53301 c -0.15617,0.61166 0.0716,1.22333 0.44465,1.62894 l -0.10302,0.48369 z m 0.974974,-6.48971 c -1.15175,0.61058 -2.520403,0.5596 -3.478026,0.73855 -1.141987,0.2028 -2.102865,1.11921 -2.035623,2.23951 0.03043,0.81447 0.544422,1.39902 2.131061,1.14524 2.190711,-0.33077 2.88805,-1.80679 3.214488,-3.33378 l 0.168097,-0.78952"
       style="fill:#005a95;fill-opacity:1;fill-rule:nonzero;stroke:none;stroke-width:1.08451"
       id="path3294" />
    <path
       d="m 78.95136,107.76473 2.94228,-13.79389 h 3.57563 l -0.44031,2.06166 h 0.051 c 1.47168,-1.63002 2.69392,-2.57138 4.72955,-2.29158 1.71352,0.22992 2.06816,0.8405 2.84033,2.01069 1.12898,-1.22116 2.44015,-2.34038 5.28157,-2.01069 2.67114,0.40778 3.04639,2.23952 2.57462,4.45409 l -2.04104,9.56972 h -3.57564 l 2.02478,-9.49272 c 0.16595,-1.01836 -0.64636,-1.4001 -1.47927,-1.45108 -1.88813,-0.12687 -2.93577,1.55302 -3.1364,2.49438 l -1.80246,8.44942 h -3.57671 l 2.02586,-9.49272 c 0.002,-0.96739 -0.539,-1.42505 -1.65713,-1.45108 -1.24719,-0.0261 -2.59523,0.78844 -2.95854,2.49438 l -1.80246,8.44942 h -3.57563"
       style="fill:#005a95;fill-opacity:1;fill-rule:nonzero;stroke:none;stroke-width:1.08451"
       id="path3296" />
    <path
       d="m 105.46872,101.98754 c -0.23425,0.73855 -0.39693,1.50205 -0.038,2.21457 0.57805,1.1203 1.69401,1.4001 2.75358,1.22116 1.06499,-0.20281 2.06924,-0.83941 2.40002,-1.55194 h 3.52466 c -1.18321,2.67224 -4.83801,4.47903 -7.26514,4.47903 -1.35347,0 -2.53775,-0.43163 -3.37825,-1.0433 -1.09752,-0.84049 -1.67448,-2.08659 -1.77751,-3.28281 -0.002,-0.22884 0,-0.8405 0.10302,-1.67991 0.12253,-0.81446 0.35138,-1.88379 0.75698,-2.95312 2.04539,-5.39544 5.85419,-5.6503 7.43866,-5.6503 2.70694,0 4.10487,1.34914 4.67966,2.72429 0.82314,2.01069 0.42621,3.86845 -0.003,5.52233 z m 6.00168,-2.39243 c 0.22233,-1.0433 0.23426,-2.77418 -1.88922,-2.87612 -2.17552,-0.10087 -3.35113,1.57796 -3.60274,2.87612 h 5.49196"
       style="fill:#005a95;fill-opacity:1;fill-rule:nonzero;stroke:none;stroke-width:1.08451"
       id="path3298" />
    <path
       d="M 43.607173,110.84582 H 53.95123 c 1.848005,0.077 3.553941,0.94244 3.661308,2.95205 0.08134,0.81553 0.182208,2.13863 -0.619255,3.74263 -0.801454,1.60292 -1.743894,2.18855 -3.153757,2.9271 0.546593,0.43162 1.67557,0.8893 1.521568,2.57028 -0.06182,0.76351 -0.53141,3.20691 -0.706016,4.14827 -0.223402,1.04329 0.03471,1.27321 0.388254,1.52698 l -0.146394,0.68758 h -4.111377 c -0.187618,-0.5596 -0.22125,-1.1203 -0.142059,-1.73087 0.144242,-0.91642 0.458748,-2.39244 0.798199,-3.74158 0.214733,-1.24717 -0.57479,-1.85777 -1.902231,-1.85777 h -4.49638 l -1.562777,7.33022 h -3.831575 z m 2.114793,8.04272 h 5.2371 c 0.893637,0 2.703684,-0.94136 2.864192,-2.77309 0.281965,-1.32418 -0.168098,-2.08769 -1.879457,-2.08769 h -5.185042 l -1.036793,4.86078"
       style="fill:#005a95;fill-opacity:1;fill-rule:nonzero;stroke:none;stroke-width:1.08451"
       id="path3300" />
    <path
       d="m 61.466887,123.62244 c -0.234255,0.73854 -0.396932,1.50205 -0.03797,2.21456 0.578043,1.1203 1.694006,1.40012 2.753573,1.22224 1.064986,-0.20382 2.069245,-0.84048 2.398935,-1.55302 h 3.525741 c -1.183199,2.67225 -4.837998,4.47905 -7.265133,4.47905 -1.353467,0 -2.537754,-0.43165 -3.37825,-1.04332 -1.097524,-0.83942 -1.674481,-2.08659 -1.77751,-3.28279 -0.0022,-0.22872 0.0011,-0.83941 0.103016,-1.67993 0.122538,-0.81445 0.351382,-1.88378 0.756986,-2.95203 2.045386,-5.39544 5.854188,-5.6503 7.438656,-5.6503 2.70694,0 4.104872,1.34804 4.679662,2.72319 0.823145,2.01069 0.426213,3.86846 -0.0034,5.52235 z M 67.468566,121.23 c 0.222326,-1.04329 0.234254,-2.77416 -1.889217,-2.87502 -2.175527,-0.10207 -3.351136,1.57688 -3.601659,2.87502 h 5.490876"
       style="fill:#005a95;fill-opacity:1;fill-rule:nonzero;stroke:none;stroke-width:1.08451"
       id="path3302" />
    <path
       d="m 79.49036,110.84582 -3.95737,18.55489 h -3.576719 l 3.957379,-18.55489 h 3.57671"
       style="fill:#005a95;fill-opacity:1;fill-rule:nonzero;stroke:none;stroke-width:1.08451"
       id="path3304" />
    <path
       d="m 86.94529,129.40071 c -0.18436,-0.33079 -0.218,-0.89038 -0.09,-1.37408 -1.50096,1.1702 -2.76767,1.95864 -4.86186,1.95864 -2.80996,0 -3.85218,-1.57688 -3.17978,-4.25021 0.48911,-1.93367 1.65713,-3.81748 4.93777,-4.35215 1.33937,-0.051 2.83491,-0.35571 3.73723,-0.6366 0.68758,-0.22872 1.13548,-0.89038 1.22549,-1.55192 0.18436,-0.86545 -0.44898,-1.24721 -2.08443,-1.24721 -2.04321,0 -2.56378,1.24721 -2.82732,2.23953 h -3.37174 c 0.99016,-4.40312 4.85753,-4.80981 6.74782,-4.80981 1.3795,0 2.53125,0.22873 3.16027,0.50863 1.2602,0.55963 2.11913,1.67993 1.65279,3.86953 l -1.60724,7.53303 c -0.1551,0.61056 0.0716,1.22224 0.44465,1.62892 l -0.10302,0.4837 z m 0.97605,-6.49081 c -1.15283,0.61167 -2.5204,0.55963 -3.47802,0.73858 -1.14199,0.20382 -2.10395,1.11919 -2.03562,2.23949 0.0304,0.81448 0.54442,1.40012 2.13106,1.14526 2.19071,-0.33078 2.88805,-1.8068 3.21449,-3.33378 l 0.16809,-0.78955"
       style="fill:#005a95;fill-opacity:1;fill-rule:nonzero;stroke:none;stroke-width:1.08451"
       id="path3306" />
    <path
       d="m 98.67318,115.60575 0.84809,10.02845 5.02562,-10.02845 h 3.67866 l -9.42548,16.64505 c -0.1887,0.40776 -0.7147,1.19731 -1.4218,1.75583 -0.97063,0.84049 -3.75674,0.96847 -4.88029,0.96847 l 0.61817,-2.90217 c 0.85242,0.0769 1.66147,0 2.29916,-0.35679 0.78193,-0.43273 1.34913,-1.29707 1.20923,-2.31543 l -1.91091,-13.79496 h 3.95955"
       style="fill:#005a95;fill-opacity:1;fill-rule:nonzero;stroke:none;stroke-width:1.08451"
       id="path3308" />
    <path
       d="m 56.530197,132.4818 -0.677821,3.18087 h -9.246534 l -0.901227,4.22525 h 8.147924 l -0.678903,3.18088 h -8.147925 l -1.698343,7.96679 h -3.831575 l 3.957378,-18.55379 h 13.077026"
       style="fill:#005a95;fill-opacity:1;fill-rule:nonzero;stroke:none;stroke-width:1.08451"
       id="path3310" />
    <g
       id="g3312"
       transform="matrix(1.0864624,0,0,-1.0825581,-30.855302,-447.93724)">
      <path
         d="m 80.295,-552.261 c -1.025,1.152 -1.216,3.127 -0.776,5.196 0.439,2.069 1.47,4.044 2.985,5.196 1.348,1.034 3.08,1.551 4.726,1.551 1.645,0 3.158,-0.517 4.067,-1.551 1.024,-1.152 1.216,-3.127 0.776,-5.196 -0.44,-2.069 -1.471,-4.044 -2.986,-5.196 -1.347,-1.034 -3.08,-1.551 -4.725,-1.551 -1.646,0 -3.158,0.517 -4.067,1.551 z m 3.68,7.688 c -0.364,-0.494 -0.917,-1.434 -1.142,-2.492 -0.224,-1.058 -0.072,-1.998 0.082,-2.492 0.386,-1.058 1.224,-1.434 2.046,-1.434 0.823,0 1.82,0.376 2.656,1.434 0.363,0.494 0.916,1.434 1.141,2.492 0.225,1.058 0.072,1.998 -0.082,2.492 -0.386,1.058 -1.223,1.434 -2.046,1.434 -0.822,0 -1.819,-0.376 -2.655,-1.434 z"
         style="fill:#005a95;fill-opacity:1;fill-rule:nonzero;stroke:#005a95;stroke-width:0.338;stroke-linecap:butt;stroke-linejoin:miter;stroke-miterlimit:3.864;stroke-dasharray:none;stroke-opacity:1"
         id="path3314" />
    </g>
    <path
       d="m 73.362879,137.24063 h 3.575631 l -0.57045,2.67222 h 0.051 c 0.40452,-0.81445 0.68649,-1.29814 2.12239,-2.16248 0.71035,-0.45877 1.62568,-0.9175 2.71127,-0.73858 l -0.77651,3.63964 c -1.49445,-0.178 -3.74915,-0.38176 -4.82499,2.62125 l -1.654955,7.76291 h -3.576718 l 2.943362,-13.79496"
       style="fill:#005a95;fill-opacity:1;fill-rule:nonzero;stroke:none;stroke-width:1.08451"
       id="path3316" />
    <path
       d="m 92.71597,151.03559 h -3.57564 l 0.36332,-1.70483 h -0.0499 c -1.36106,1.70483 -2.57137,2.11263 -3.86086,2.29047 -1.96079,-0.0246 -5.13515,-0.22872 -4.31743,-4.78484 l 2.04647,-9.59576 h 3.57672 l -1.82523,8.55136 c -0.31126,1.22224 -0.64204,2.77526 2.01068,2.67332 2.21999,-0.22872 2.83708,-1.45108 3.09844,-2.3165 l 1.90006,-8.90818 h 3.57564 l -2.94228,13.79496"
       style="fill:#005a95;fill-opacity:1;fill-rule:nonzero;stroke:none;stroke-width:1.08451"
       id="path3318" />
    <path
       d="m 95.95648,151.03559 2.94336,-13.79496 h 3.57455 l -0.43923,2.06165 h 0.051 c 1.47168,-1.62892 2.69393,-2.57028 4.72847,-2.29049 1.71461,0.22872 2.06924,0.84052 2.84033,2.01068 1.13006,-1.22224 2.44015,-2.34144 5.28265,-2.01068 2.67115,0.40672 3.04639,2.2406 2.57463,4.45409 l -2.04105,9.56971 h -3.57672 l 2.02478,-9.49378 c 0.16702,-1.01728 -0.64637,-1.40012 -1.47818,-1.45001 -1.88814,-0.12789 -2.93686,1.55195 -3.13641,2.4933 l -1.80245,8.45049 h -3.57672 l 2.02587,-9.49378 c 0.001,-0.96631 -0.54009,-1.42505 -1.65822,-1.45001 -1.2461,-0.0246 -2.59415,0.78844 -2.95854,2.4933 l -1.80246,8.45049 h -3.57563"
       style="fill:#005a95;fill-opacity:1;fill-rule:nonzero;stroke:none;stroke-width:1.08451"
       id="path3320" />
  </g>
</svg>
