<?xml version="1.0" encoding="UTF-8"?>
<svg xmlns="http://www.w3.org/2000/svg" xmlns:xlink="http://www.w3.org/1999/xlink" width="3001" height="3001" viewBox="0 0 3001 3001">
<defs>
<clipPath id="clip-0">

</clipPath>
<radialGradient id="radial-pattern-0" gradientUnits="userSpaceOnUse" cx="0" cy="0" fx="0" fy="0" r="1500" gradientTransform="matrix(1, 0, 0, 1, 1500.5, 1500.5)">
<stop offset="0" stop-color="rgb(99.905396%, 99.90387%, 99.90387%)" stop-opacity="1"/>
<stop offset="0.015625" stop-color="rgb(99.64447%, 99.638367%, 99.639893%)" stop-opacity="1"/>
<stop offset="0.0429688" stop-color="rgb(99.311829%, 99.299622%, 99.302673%)" stop-opacity="1"/>
<stop offset="0.0703125" stop-color="rgb(98.979187%, 98.960876%, 98.965454%)" stop-opacity="1"/>
<stop offset="0.0976562" stop-color="rgb(98.64502%, 98.620605%, 98.626709%)" stop-opacity="1"/>
<stop offset="0.125" stop-color="rgb(98.312378%, 98.28186%, 98.28949%)" stop-opacity="1"/>
<stop offset="0.152344" stop-color="rgb(98.002625%, 97.966003%, 97.975159%)" stop-opacity="1"/>
<stop offset="0.175781" stop-color="rgb(97.717285%, 97.676086%, 97.686768%)" stop-opacity="1"/>
<stop offset="0.199219" stop-color="rgb(97.43042%, 97.384644%, 97.395325%)" stop-opacity="1"/>
<stop offset="0.222656" stop-color="rgb(97.146606%, 97.094727%, 97.106934%)" stop-opacity="1"/>
<stop offset="0.246094" stop-color="rgb(96.862793%, 96.80481%, 96.820068%)" stop-opacity="1"/>
<stop offset="0.269531" stop-color="rgb(96.600342%, 96.537781%, 96.554565%)" stop-opacity="1"/>
<stop offset="0.289062" stop-color="rgb(96.362305%, 96.295166%, 96.311951%)" stop-opacity="1"/>
<stop offset="0.308594" stop-color="rgb(96.122742%, 96.052551%, 96.069336%)" stop-opacity="1"/>
<stop offset="0.328125" stop-color="rgb(95.88623%, 95.811462%, 95.831299%)" stop-opacity="1"/>
<stop offset="0.347656" stop-color="rgb(95.648193%, 95.568848%, 95.588684%)" stop-opacity="1"/>
<stop offset="0.367188" stop-color="rgb(95.40863%, 95.326233%, 95.346069%)" stop-opacity="1"/>
<stop offset="0.386719" stop-color="rgb(95.196533%, 95.109558%, 95.13092%)" stop-opacity="1"/>
<stop offset="0.402344" stop-color="rgb(95.005798%, 94.915771%, 94.93866%)" stop-opacity="1"/>
<stop offset="0.417969" stop-color="rgb(94.813538%, 94.718933%, 94.743347%)" stop-opacity="1"/>
<stop offset="0.433594" stop-color="rgb(94.624329%, 94.526672%, 94.551086%)" stop-opacity="1"/>
<stop offset="0.449219" stop-color="rgb(94.43512%, 94.334412%, 94.358826%)" stop-opacity="1"/>
<stop offset="0.464844" stop-color="rgb(94.245911%, 94.140625%, 94.166565%)" stop-opacity="1"/>
<stop offset="0.480469" stop-color="rgb(94.05365%, 93.945312%, 93.971252%)" stop-opacity="1"/>
<stop offset="0.496094" stop-color="rgb(93.864441%, 93.753052%, 93.780518%)" stop-opacity="1"/>
<stop offset="0.511719" stop-color="rgb(93.603516%, 93.486023%, 93.515015%)" stop-opacity="1"/>
<stop offset="0.539062" stop-color="rgb(93.269348%, 93.145752%, 93.17627%)" stop-opacity="1"/>
<stop offset="0.566406" stop-color="rgb(92.961121%, 92.832947%, 92.86499%)" stop-opacity="1"/>
<stop offset="0.589844" stop-color="rgb(92.674255%, 92.539978%, 92.573547%)" stop-opacity="1"/>
<stop offset="0.613281" stop-color="rgb(92.388916%, 92.250061%, 92.285156%)" stop-opacity="1"/>
<stop offset="0.636719" stop-color="rgb(92.127991%, 91.984558%, 92.019653%)" stop-opacity="1"/>
<stop offset="0.65625" stop-color="rgb(91.888428%, 91.741943%, 91.778564%)" stop-opacity="1"/>
<stop offset="0.675781" stop-color="rgb(91.651917%, 91.500854%, 91.537476%)" stop-opacity="1"/>
<stop offset="0.695312" stop-color="rgb(91.436768%, 91.281128%, 91.319275%)" stop-opacity="1"/>
<stop offset="0.710938" stop-color="rgb(91.246033%, 91.087341%, 91.127014%)" stop-opacity="1"/>
<stop offset="0.726562" stop-color="rgb(91.056824%, 90.895081%, 90.934753%)" stop-opacity="1"/>
<stop offset="0.742188" stop-color="rgb(90.867615%, 90.701294%, 90.742493%)" stop-opacity="1"/>
<stop offset="0.757812" stop-color="rgb(90.603638%, 90.432739%, 90.475464%)" stop-opacity="1"/>
<stop offset="0.785156" stop-color="rgb(90.296936%, 90.119934%, 90.164185%)" stop-opacity="1"/>
<stop offset="0.808594" stop-color="rgb(90.008545%, 89.826965%, 89.872742%)" stop-opacity="1"/>
<stop offset="0.832031" stop-color="rgb(89.749146%, 89.561462%, 89.608765%)" stop-opacity="1"/>
<stop offset="0.851562" stop-color="rgb(89.535522%, 89.344788%, 89.39209%)" stop-opacity="1"/>
<stop offset="0.867188" stop-color="rgb(89.343262%, 89.149475%, 89.196777%)" stop-opacity="1"/>
<stop offset="0.882812" stop-color="rgb(89.083862%, 88.885498%, 88.934326%)" stop-opacity="1"/>
<stop offset="0.910156" stop-color="rgb(88.798523%, 88.594055%, 88.644409%)" stop-opacity="1"/>
<stop offset="0.929688" stop-color="rgb(88.581848%, 88.374329%, 88.426208%)" stop-opacity="1"/>
<stop offset="0.945312" stop-color="rgb(88.320923%, 88.108826%, 88.162231%)" stop-opacity="1"/>
<stop offset="0.972656" stop-color="rgb(87.986755%, 87.768555%, 87.823486%)" stop-opacity="1"/>
<stop offset="1" stop-color="rgb(87.820435%, 87.599182%, 87.654114%)" stop-opacity="1"/>
</radialGradient>
</defs>
<g clip-path="url(#clip-0)">
<path fill-rule="nonzero" fill="url(#radial-pattern-0)" d="M 0.5 0.5 L 0.5 3000.5 L 3000.5 3000.5 L 3000.5 0.5 Z M 0.5 0.5 "/>
</g>
<path fill="none" stroke-width="10" stroke-linecap="butt" stroke-linejoin="miter" stroke="rgb(13.729858%, 12.159729%, 12.548828%)" stroke-opacity="1" stroke-miterlimit="10" d="M 30005 5 L 5 5 L 5 30005 L 30005 30005 Z M 30005 5 " transform="matrix(0.1, 0, 0, -0.1, 0, 3001)"/>
<path fill-rule="nonzero" fill="rgb(13.729858%, 12.159729%, 12.548828%)" fill-opacity="1" d="M 2438 2458.261719 C 2363.890625 2458.261719 2304.070312 2398.441406 2304.070312 2324.328125 C 2304.070312 2250.230469 2363.890625 2190.410156 2438 2190.410156 C 2512.109375 2190.410156 2571.929688 2250.230469 2571.929688 2324.328125 C 2571.929688 2398.441406 2512.109375 2458.261719 2438 2458.261719 Z M 2125.5 2413.621094 C 2125.5 2438.171875 2105.410156 2458.261719 2080.859375 2458.261719 L 2036.210938 2458.261719 C 2011.660156 2458.261719 1991.570312 2438.171875 1991.570312 2413.621094 L 1991.570312 2235.050781 C 1991.570312 2210.5 2011.660156 2190.410156 2036.210938 2190.410156 L 2080.859375 2190.410156 C 2105.410156 2190.410156 2125.5 2210.5 2125.5 2235.050781 Z M 1813 2413.621094 C 1813 2438.171875 1792.910156 2458.261719 1768.359375 2458.261719 L 1723.710938 2458.261719 C 1699.160156 2458.261719 1679.070312 2438.171875 1679.070312 2413.621094 L 1679.070312 2235.050781 C 1679.070312 2210.5 1699.160156 2190.410156 1723.710938 2190.410156 L 1768.359375 2190.410156 C 1792.910156 2190.410156 1813 2210.5 1813 2235.050781 Z M 1366.570312 2458.261719 C 1292.46875 2458.261719 1232.640625 2398.441406 1232.640625 2324.328125 C 1232.640625 2250.230469 1292.46875 2190.410156 1366.570312 2190.410156 C 1440.679688 2190.410156 1500.5 2250.230469 1500.5 2324.328125 C 1500.5 2398.441406 1440.679688 2458.261719 1366.570312 2458.261719 Z M 964.785156 2458.261719 C 890.679688 2458.261719 830.855469 2398.441406 830.855469 2324.328125 C 830.855469 2250.230469 890.679688 2190.410156 964.785156 2190.410156 C 1038.890625 2190.410156 1098.710938 2250.230469 1098.710938 2324.328125 C 1098.710938 2398.441406 1038.890625 2458.261719 964.785156 2458.261719 Z M 563 2458.261719 C 488.894531 2458.261719 429.070312 2398.441406 429.070312 2324.328125 C 429.070312 2250.230469 488.894531 2190.410156 563 2190.410156 C 637.109375 2190.410156 696.929688 2250.230469 696.929688 2324.328125 C 696.929688 2398.441406 637.109375 2458.261719 563 2458.261719 Z M 2666.121094 1967.191406 L 334.875 1967.191406 C 288 1967.191406 250.5 2004.691406 250.5 2051.570312 L 250.5 2597.101562 C 250.5 2643.980469 288 2681.480469 334.875 2681.480469 L 2666.121094 2681.480469 C 2713 2681.480469 2750.5 2643.980469 2750.5 2597.101562 L 2750.5 2051.570312 C 2750.5 2004.691406 2713 1967.191406 2666.121094 1967.191406 "/>
<path fill-rule="nonzero" fill="rgb(13.729858%, 12.159729%, 12.548828%)" fill-opacity="1" d="M 2259.429688 1877.910156 L 2080.859375 1877.910156 L 2080.859375 853 C 2080.859375 851.960938 2081.699219 851.121094 2082.738281 851.121094 L 2257.550781 851.121094 C 2258.589844 851.121094 2259.429688 851.960938 2259.429688 853 L 2259.429688 1877.910156 "/>
<path fill-rule="nonzero" fill="rgb(13.729858%, 12.159729%, 12.548828%)" fill-opacity="1" d="M 2521.898438 550.519531 C 2510.480469 550.519531 2499.058594 546.160156 2490.339844 537.441406 C 2404.738281 451.839844 2291.011719 404.691406 2170.140625 404.691406 C 2049.269531 404.691406 1935.550781 451.839844 1849.949219 537.441406 C 1832.511719 554.878906 1804.261719 554.878906 1786.820312 537.441406 C 1769.378906 520 1769.378906 491.75 1786.820312 474.308594 C 1889.269531 371.839844 2025.398438 315.410156 2170.140625 315.410156 C 2314.878906 315.410156 2451.011719 371.839844 2553.46875 474.308594 C 2570.898438 491.75 2570.898438 520 2553.46875 537.441406 C 2544.75 546.160156 2533.320312 550.519531 2521.898438 550.519531 "/>
<path fill-rule="nonzero" fill="rgb(13.729858%, 12.159729%, 12.548828%)" fill-opacity="1" d="M 2393.359375 631.148438 C 2381.929688 631.148438 2370.511719 626.789062 2361.789062 618.070312 C 2256.121094 512.398438 2084.171875 512.398438 1978.488281 618.070312 C 1961.050781 635.511719 1932.800781 635.511719 1915.359375 618.070312 C 1897.929688 600.640625 1897.929688 572.378906 1915.359375 554.949219 C 2055.828125 414.429688 2284.449219 414.429688 2424.921875 554.949219 C 2442.359375 572.378906 2442.359375 600.640625 2424.921875 618.070312 C 2416.199219 626.789062 2404.78125 631.148438 2393.359375 631.148438 "/>
<path fill-rule="nonzero" fill="rgb(13.729858%, 12.159729%, 12.548828%)" fill-opacity="1" d="M 2259.429688 709.558594 C 2248.011719 709.558594 2236.578125 705.199219 2227.859375 696.480469 C 2196.039062 664.660156 2144.25 664.660156 2112.421875 696.480469 C 2094.980469 713.921875 2066.730469 713.921875 2049.289062 696.480469 C 2031.851562 679.039062 2031.851562 650.789062 2049.289062 633.359375 C 2115.910156 566.699219 2224.378906 566.699219 2290.988281 633.359375 C 2308.429688 650.789062 2308.429688 679.039062 2290.988281 696.480469 C 2282.269531 705.199219 2270.851562 709.558594 2259.429688 709.558594 "/>
</svg>
