<?xml version="1.0" encoding="utf-8"?>
<!-- Generator: Adobe Illustrator 14.0.0, SVG Export Plug-In . SVG Version: 6.00 Build 43363)  -->
<!DOCTYPE svg PUBLIC "-//W3C//DTD SVG 1.1//EN" "http://www.w3.org/Graphics/SVG/1.1/DTD/svg11.dtd">
<svg version="1.1"
	 id="svg2" inkscape:output_extension="org.inkscape.output.svg.inkscape" inkscape:version="0.46" xmlns:svg="http://www.w3.org/2000/svg" xmlns:sodipodi="http://sodipodi.sourceforge.net/DTD/sodipodi-0.dtd" sodipodi:docname="wi-fi-logo.svg" xmlns:dc="http://purl.org/dc/elements/1.1/" xmlns:inkscape="http://www.inkscape.org/namespaces/inkscape" xmlns:cc="http://creativecommons.org/ns#" sodipodi:version="0.32" xmlns:rdf="http://www.w3.org/1999/02/22-rdf-syntax-ns#"
	 xmlns="http://www.w3.org/2000/svg" xmlns:xlink="http://www.w3.org/1999/xlink" x="0px" y="0px" width="304px" height="195px"
	 viewBox="0 0 304 195" enable-background="new 0 0 304 195" xml:space="preserve">
<defs>
	
	
		<inkscape:perspective  id="perspective10" inkscape:persp3d-origin="2065.0629 : 247.75183 : 1" inkscape:vp_y="6.1230318e-14 : 1000 : 0" inkscape:vp_x="1693.0157 : 423.14553 : 1" inkscape:vp_z="2437.1101 : 423.14553 : 1" sodipodi:type="inkscape:persp3d">
		</inkscape:perspective>
	
		<inkscape:perspective  id="perspective2447" inkscape:persp3d-origin="372.04724 : 350.78739 : 1" inkscape:vp_y="0 : 1000 : 0" inkscape:vp_x="0 : 526.18109 : 1" inkscape:vp_z="744.09448 : 526.18109 : 1" sodipodi:type="inkscape:persp3d">
		</inkscape:perspective>
</defs>
<sodipodi:namedview  id="base" bordercolor="#666666" pagecolor="#ffffff" inkscape:window-width="1280" inkscape:window-x="0" inkscape:window-y="6" inkscape:cy="45.136624" inkscape:document-units="px" gridtolerance="10000" inkscape:window-height="987" inkscape:current-layer="layer1" borderopacity="1.0" showgrid="false" guidetolerance="10" objecttolerance="10" inkscape:pageopacity="0.0" inkscape:pageshadow="2" inkscape:zoom="1.9542857" inkscape:cx="93.448753">
	</sodipodi:namedview>
<g>
	<polygon points="166.112,125.984 182.847,125.984 182.847,107.713 214.688,107.713 214.688,94.054 182.756,94.054 182.756,79.762 
		218.848,79.762 218.848,65.56 166.021,65.56 	"/>
	<polygon points="300.43,41.428 297.936,50.214 295.379,41.459 292.127,41.459 292.127,53.771 294.021,53.771 294.021,44.269 
		296.977,52.525 298.971,52.511 302.039,44.395 302.039,53.928 303.965,53.928 303.965,41.428 	"/>
	<path d="M249.324,39.948c-7.051-3.541-12.661-3.287-12.661-3.287h-22.224c0,0-28.031-36.618-77.023-36.618
		S63.675,37.167,63.675,37.167H43.977c0,0-14.269-1.642-29.295,13.384C-0.344,65.577,0.035,80.603,0.035,80.603v34.85
		c0.252,0-1.137,14.773,13.385,29.295c14.521,14.52,29.547,13.637,29.547,13.637h22.729c0,0,24.531,36.572,72.479,36.572
		c47.939,0,73.488-36.826,73.488-36.826h20.455c0,0,17.173,1.516,30.558-11.869c13.384-13.383,14.142-19.576,14.142-27.525V80.603
		c0-5.339-0.879-12.659-7.425-22.819C262.863,47.652,256.451,43.527,249.324,39.948z M83.373,126.312h-15.91l-6.692-35.103
		l-6.944,35.103H38.295L24.152,65.324l17.173,0.126l5.177,33.84l6.945-33.714h15.278l6.944,33.335l4.925-33.209h16.92
		L83.373,126.312z M120.432,126.256h-14.925V82.385h14.925V126.256z M113.285,77.681c-5.192,0-9.406-3.444-9.406-7.688
		s4.214-7.689,9.406-7.689c5.193,0,9.408,3.445,9.408,7.689S118.479,77.681,113.285,77.681z M267.785,114.316
		c0,6.676-1.791,16.354-10.674,24.514c-8.884,8.158-15.729,10.674-22.795,10.674H126.312c0,0,18.634-14.141,18.634-35.188V78.857
		c0-5.702,2.924-13.778,11.669-22.524c8.745-8.745,16.452-10.131,21.8-10.131h55.54c9.44,0.132,16.776,4.089,23.519,10.402
		c6.248,6.564,10.312,14.791,10.312,23.79V114.316z"/>
	<rect x="228.889" y="82.43" width="14.925" height="43.871"/>
	<polygon points="280.163,43.543 283.888,43.543 283.888,53.802 286.256,53.802 286.256,43.575 289.917,43.575 289.917,41.333 
		280.163,41.365 	"/>
	<path d="M236.668,62.349c-5.193,0-9.408,3.444-9.408,7.688s4.215,7.689,9.408,7.689c5.192,0,9.407-3.445,9.407-7.689
		S241.86,62.349,236.668,62.349z"/>
</g>
</svg>
